<svg xmlns="http://www.w3.org/2000/svg" width="120" height="160" viewBox="0 0 31.8 42.3">
  <path d="M12 12.7l-.4-1.2-.4-.8-1-2-.7-1.2C8.7 6.2 8 5 6.7 3.8c-1.4-.7 0-.1.5-.4.6-.4.4-1.8.5 0l.2 1.5 1 4.6.6 2.9.7 2.9.6 2.7c.6 3.2.5 2.2.8 5.5L12 26l.2 2.3v7.4l-.3 1.2c0 .4-.4 1.4-.7 1.8l-.7.6-1 .3c-1.3 0-2.2-1-3-1.8l-1.9-2.3c-1.2-1.4-.4-.4-1.5-2-.2-.2-2-2.9-.8-3.2 1.3-.3 5.7 3 9.3 4 .5 0-.3-.1.2-.2.4 0 1-.1 1.2-.3.5-.2.7-.4 1-.7l.5-.5c.5-.7.9-1.4 1.1-2.2L16 29c.1-.8.2-1.7 0-2.6 0-.5-.1-.6-.3-1-.4-.8-.3-.6-.4-.4l-.1.2-.1.2a8.3 8.3 0 00-.3 2.9l.1 1 .4 2.3.7 2.2.9 1.4c.3.4.3.5.5.1l.4-.5.3-1c.3-.8.5-1.4.6-2.2l.2-1.1.3-1.3.4-2.9V25l.2-1.4.1-2.3c2-6.8 1.3 3.2 1.8 6 0 .8.2 1.5.4 2.3.4 1.5.5 2.3 1 3.8a26.3 26.3 0 001.6 3.7l.5.8.8 1c.2.1.3 0 .6-.5l.5-1.7.2-1.4v-1.5-3.5c-.4-2.3-1-4.6-1.8-6.7l-1-2.3-1.3-2a25.4 25.4 0 00-3.4-4.3c-2.6-2.7-2-2.1-1 .7a93 93 0 005.2 10c1 1.6 2 2.8 3.1 4.3l3 3.5c.3.4-.3.9-.7.5-2-2.4-1-1.2-2.8-3.7l-1.5-2-1.5-2.3c-3.4-3.5-9.4-16.3-5.4-14.3l1 .9.8.7 1.8 2.2c1.2 1.8 2.2 3.7 3.2 5.6l1 2.3a39.7 39.7 0 012.5 8.7l.1 1.7v3.1l-.1 1.3c-.6 2.4-2.7 3.3-4 1.7-.5-.5-.5-.6-.8-1.3l-.4-1c-.6-1.3-.9-2.6-1.2-4l-.4-1.8-.4-2.1c0-.8-.2-1.5-.3-2.3-.3-2.3-.8-4.7-1-6.8-.1-1.5-1.1-4.2.3-4.7 1.9-.3 1.8 1.1 1.6 2.3l-.1 1.4-.1.9-.2 1-.6 5-.3 2.9c0 .4 0 .9-.2 1.3l-.2 1.2L20 33l-.3 1.2c-.3 1.2-.8 2.9-2 3.2h-1L16 37c-.5-.4-.6-.6-.9-1.1 0-.3-.2-.5-.3-.8l-.7-2-.4-1.3-.4-2.4-.2-1.1v-1.1l-.2-1 .1-1.4.2-.6.5-.8a2 2 0 011.5-.7h.5l.5.2.4.2c.5.5.8 1 1 1.7l.2 1.4a9.5 9.5 0 010 1.5c0 .6 0 1-.2 1.6 0 .2 0 .5-.2.8a14.9 14.9 0 01-1 2.6c-.6 1-.6.9-1.3 1.7l-1.5 1c-.6.2-1.4.4-2 .4-3.2-.4-5.8-2.2-7.7-3.3L5.6 35l.9 1c.6.7 1 1 1.8 1.6l1 .4h.2l.8-1.2.4-1 .5-3 .2-2a44.4 44.4 0 00-.2-7.2c-.2-2.1-.5-3.4-.8-5.5l-.5-2.7A57.2 57.2 0 006.7 5.2L6 3.8c-.4-.7-1-1.3-.2-2.1.3-.3.8-.2 1.2-.2l.4.2.5.6L9 4l.5.9 1.2 2 1.4 2.2 1 1.7.8 1c.7 1.3-1.3 2.2-2 1z" />
</svg>